<svg width="1623" height="549" viewBox="0 0 1623 549" fill="none" xmlns="http://www.w3.org/2000/svg">
<g clip-path="url(#clip0_218_3104)">
<mask id="mask0_218_3104" style="mask-type:alpha" maskUnits="userSpaceOnUse" x="0" y="0" width="1623" height="549">
<rect width="1623" height="549" fill="url(#paint0_linear_218_3104)"/>
</mask>
<g mask="url(#mask0_218_3104)">
<path opacity="0.4" d="M814.497 829.136L808.577 829.827C709.406 410.603 391.763 287.301 245.81 277.945L246.002 271.951H811.497H814.497V274.951V829.136Z" stroke="url(#paint1_linear_218_3104)" stroke-width="6"/>
<path opacity="0.4" d="M247.495 829.136L245.521 829.366C146.113 409.14 -172.394 285.351 -319.064 275.949L-319 273.951H246.495H247.495V274.951V829.136Z" stroke="url(#paint2_linear_218_3104)" stroke-width="2"/>
<path opacity="0.4" d="M810.505 -279.235L812.479 -279.466C911.887 140.761 1230.39 264.55 1377.06 273.952L1377 275.949H811.505H810.505V274.949V-279.235Z" stroke="url(#paint3_linear_218_3104)" stroke-width="2"/>
<path opacity="0.4" d="M808.505 -279.235L814.425 -279.926C913.596 139.297 1231.24 262.6 1377.19 271.956L1377 277.949H811.505H808.505V274.949V-279.235Z" stroke="url(#paint4_linear_218_3104)" stroke-width="6"/>
<path opacity="0.4" d="M1377 -279.235L1378.97 -279.466C1478.38 140.761 1796.89 264.55 1943.56 273.952L1943.49 275.949H1378H1377V274.949V-279.235Z" stroke="url(#paint5_linear_218_3104)" stroke-width="2"/>
</g>
<circle cx="811" cy="274" r="212.5" stroke="url(#paint6_linear_218_3104)" stroke-width="5"/>
<circle opacity="0.8" cx="811" cy="274" r="270.5" stroke="url(#paint7_linear_218_3104)" stroke-width="5"/>
<circle cx="811.492" cy="274.492" r="308.025" transform="rotate(45 811.492 274.492)" stroke="url(#paint8_linear_218_3104)" stroke-width="3"/>
<path d="M645.403 440.581C705.466 500.645 778.419 536.527 847.86 545.934C917.303 555.341 983.325 538.272 1029.3 492.298C1075.27 446.325 1092.34 380.302 1082.93 310.86C1073.53 241.418 1037.65 168.466 977.582 108.402C917.518 48.3382 844.566 12.4565 775.124 3.04964C705.681 -6.35738 639.659 10.7118 593.686 56.6851C547.712 102.658 530.643 168.681 540.05 238.124C549.457 307.565 585.339 380.518 645.403 440.581Z" stroke="url(#paint9_linear_218_3104)" stroke-width="3"/>
<path d="M710.91 173.909C650.94 233.879 607.755 299.382 586.451 356.86C565.196 414.204 565.537 464.149 593.685 492.297C621.833 520.445 671.779 520.786 729.123 499.532C786.601 478.227 852.104 435.042 912.074 375.072C972.043 315.103 1015.23 249.6 1036.53 192.122C1057.79 134.778 1057.45 84.8322 1029.3 56.6842C1001.15 28.5363 951.205 28.1952 893.861 49.4498C836.383 70.7542 770.88 113.939 710.91 173.909Z" stroke="url(#paint10_linear_218_3104)" stroke-width="3"/>
<path d="M768.969 310.722C815.694 365.561 862.66 411.292 900.842 440.895C919.923 455.688 936.875 466.504 950.548 472.397C957.381 475.343 963.475 477.094 968.654 477.458C973.84 477.823 978.251 476.802 981.506 474.029C984.76 471.256 986.469 467.062 986.932 461.884C987.395 456.713 986.634 450.419 984.81 443.205C981.162 428.769 973.175 410.316 961.598 389.128C938.434 346.73 900.739 293.1 854.013 238.26C807.287 183.42 760.322 137.689 722.139 108.087C703.058 93.2935 686.107 82.4779 672.434 76.5841C665.6 73.6385 659.507 71.8873 654.328 71.5233C649.142 71.1588 644.73 72.18 641.476 74.9528C638.222 77.7257 636.513 81.9193 636.049 87.0973C635.587 92.2682 636.348 98.5625 638.171 105.777C641.82 120.212 649.807 138.666 661.383 159.854C684.548 202.251 722.243 255.882 768.969 310.722Z" stroke="url(#paint11_linear_218_3104)" stroke-width="3"/>
<circle r="701.591" transform="matrix(-0.707107 0.707107 0.707107 0.707107 811.491 274.492)" stroke="url(#paint12_linear_218_3104)"/>
<path d="M1189.3 652.303C1052.34 789.27 886.053 871.014 727.916 892.435C569.779 913.857 419.758 874.957 315.392 770.591C211.026 666.225 172.126 516.204 193.548 358.067C214.969 199.93 296.713 33.647 433.68 -103.32C570.647 -240.287 736.93 -322.03 895.066 -343.452C1053.2 -364.874 1203.22 -325.974 1307.59 -221.608C1411.96 -117.242 1450.86 32.7793 1429.44 190.916C1408.01 349.053 1326.27 515.336 1189.3 652.303Z" stroke="url(#paint13_linear_218_3104)"/>
<path d="M1039.47 46.5093C1176.41 183.445 1274.91 332.918 1323.46 463.905C1372 594.846 1370.67 707.509 1307.59 770.589C1244.51 833.668 1131.85 834.994 1000.91 786.46C869.921 737.909 720.447 639.405 583.512 502.47C446.576 365.534 348.072 216.061 299.521 85.0742C250.987 -45.8674 252.313 -158.531 315.392 -221.61C378.471 -284.689 491.135 -286.015 622.076 -237.481C753.063 -188.931 902.536 -90.4262 1039.47 46.5093Z" stroke="url(#paint14_linear_218_3104)"/>
<path d="M906.521 355.456C799.738 480.781 692.461 585.225 605.332 652.776C561.77 686.548 523.224 711.116 492.279 724.455C476.808 731.123 463.211 734.997 451.822 735.798C440.43 736.598 431.199 734.326 424.533 728.646C417.866 722.966 414.158 714.213 413.139 702.839C412.122 691.467 413.787 677.427 417.915 661.093C426.172 628.424 444.308 586.466 470.736 538.095C523.597 441.346 609.685 318.847 716.467 193.523C823.249 68.1978 930.526 -36.2462 1017.66 -103.797C1061.22 -137.569 1099.76 -162.137 1130.71 -175.475C1146.18 -182.144 1159.78 -186.018 1171.17 -186.818C1182.56 -187.619 1191.79 -185.347 1198.45 -179.667C1205.12 -173.987 1208.83 -165.234 1209.85 -153.86C1210.87 -142.488 1209.2 -128.448 1205.07 -112.114C1196.82 -79.4447 1178.68 -37.4867 1152.25 10.8841C1099.39 107.633 1013.3 230.132 906.521 355.456Z" stroke="url(#paint15_linear_218_3104)"/>
<circle opacity="0.8" cx="811" cy="273.999" r="651.465" stroke="url(#paint16_linear_218_3104)" stroke-width="65"/>
<circle opacity="0.8" cx="811" cy="274" r="730.534" stroke="url(#paint17_linear_218_3104)" stroke-width="9"/>
<circle opacity="0.8" cx="811" cy="274" r="778.5" stroke="url(#paint18_linear_218_3104)" stroke-width="5"/>
<circle opacity="0.6" cx="811" cy="274" r="325" stroke="url(#paint19_linear_218_3104)" stroke-width="4"/>
<circle opacity="0.4" cx="811" cy="274" r="381" stroke="url(#paint20_linear_218_3104)" stroke-width="4"/>
<circle opacity="0.2" cx="811" cy="274" r="435" stroke="url(#paint21_linear_218_3104)" stroke-width="4"/>
<circle opacity="0.2" cx="811" cy="274" r="484.5" stroke="url(#paint22_linear_218_3104)" stroke-width="3"/>
<circle opacity="0.2" cx="811" cy="274" r="533.5" stroke="url(#paint23_linear_218_3104)" stroke-width="3"/>
<circle opacity="0.1" cx="811" cy="274" r="578.5" stroke="url(#paint24_linear_218_3104)" stroke-width="3"/>
<circle cx="811" cy="272" r="136" fill="white"/>
<path fill-rule="evenodd" clip-rule="evenodd" d="M964 274C964 358.5 895.5 427 811 427C726.5 427 658 358.5 658 274C658 189.5 726.5 121 811 121C895.5 121 964 189.5 964 274ZM810.999 398.951C788.559 304.091 716.649 276.126 683.499 274.001H810.999V398.951ZM938.501 274C905.351 271.875 833.441 243.91 811.001 149.05V274H938.501Z" fill="url(#paint25_linear_218_3104)"/>
</g>
<defs>
<linearGradient id="paint0_linear_218_3104" x1="0" y1="0" x2="640.492" y2="-564.928" gradientUnits="userSpaceOnUse">
<stop stop-color="#69C9FF"/>
<stop offset="1" stop-color="#88F1BB"/>
</linearGradient>
<linearGradient id="paint1_linear_218_3104" x1="246.002" y1="829.136" x2="609.122" y2="939.686" gradientUnits="userSpaceOnUse">
<stop stop-color="#69C9FF"/>
<stop offset="1" stop-color="#88F1BB"/>
</linearGradient>
<linearGradient id="paint2_linear_218_3104" x1="-319" y1="829.136" x2="44.1205" y2="939.686" gradientUnits="userSpaceOnUse">
<stop stop-color="#69C9FF"/>
<stop offset="1" stop-color="#88F1BB"/>
</linearGradient>
<linearGradient id="paint3_linear_218_3104" x1="1377" y1="-279.235" x2="1013.88" y2="-389.785" gradientUnits="userSpaceOnUse">
<stop stop-color="#69C9FF"/>
<stop offset="1" stop-color="#88F1BB"/>
</linearGradient>
<linearGradient id="paint4_linear_218_3104" x1="1377" y1="-279.235" x2="1013.88" y2="-389.785" gradientUnits="userSpaceOnUse">
<stop stop-color="#69C9FF"/>
<stop offset="1" stop-color="#88F1BB"/>
</linearGradient>
<linearGradient id="paint5_linear_218_3104" x1="1943.49" y1="-279.235" x2="1580.37" y2="-389.785" gradientUnits="userSpaceOnUse">
<stop stop-color="#69C9FF"/>
<stop offset="1" stop-color="#88F1BB"/>
</linearGradient>
<linearGradient id="paint6_linear_218_3104" x1="601" y1="64" x2="871.603" y2="-16.7357" gradientUnits="userSpaceOnUse">
<stop stop-color="#69C9FF"/>
<stop offset="1" stop-color="#88F1BB"/>
</linearGradient>
<linearGradient id="paint7_linear_218_3104" x1="543" y1="6" x2="888.341" y2="-97.0342" gradientUnits="userSpaceOnUse">
<stop stop-color="#69C9FF"/>
<stop offset="1" stop-color="#88F1BB"/>
</linearGradient>
<linearGradient id="paint8_linear_218_3104" x1="504.967" y1="-32.0332" x2="899.951" y2="-149.879" gradientUnits="userSpaceOnUse">
<stop stop-color="#69C9FF"/>
<stop offset="1" stop-color="#88F1BB"/>
</linearGradient>
<linearGradient id="paint9_linear_218_3104" x1="759.775" y1="-107.283" x2="1126.77" y2="53.0675" gradientUnits="userSpaceOnUse">
<stop stop-color="#69C9FF"/>
<stop offset="1" stop-color="#88F1BB"/>
</linearGradient>
<linearGradient id="paint10_linear_218_3104" x1="1127.76" y1="157.266" x2="1052.86" y2="510.091" gradientUnits="userSpaceOnUse">
<stop stop-color="#69C9FF"/>
<stop offset="1" stop-color="#88F1BB"/>
</linearGradient>
<linearGradient id="paint11_linear_218_3104" x1="683.829" y1="40.8367" x2="892.439" y2="20.8391" gradientUnits="userSpaceOnUse">
<stop stop-color="#69C9FF"/>
<stop offset="1" stop-color="#88F1BB"/>
</linearGradient>
<linearGradient id="paint12_linear_218_3104" x1="0" y1="0" x2="903.416" y2="-269.538" gradientUnits="userSpaceOnUse">
<stop stop-color="#69C9FF"/>
<stop offset="1" stop-color="#88F1BB"/>
</linearGradient>
<linearGradient id="paint13_linear_218_3104" x1="929.779" y1="-598.712" x2="90.3886" y2="-231.955" gradientUnits="userSpaceOnUse">
<stop stop-color="#69C9FF"/>
<stop offset="1" stop-color="#88F1BB"/>
</linearGradient>
<linearGradient id="paint14_linear_218_3104" x1="88.1191" y1="6.37012" x2="259.426" y2="813.358" gradientUnits="userSpaceOnUse">
<stop stop-color="#69C9FF"/>
<stop offset="1" stop-color="#88F1BB"/>
</linearGradient>
<linearGradient id="paint15_linear_218_3104" x1="1103.48" y1="-259.929" x2="626.347" y2="-305.668" gradientUnits="userSpaceOnUse">
<stop stop-color="#69C9FF"/>
<stop offset="1" stop-color="#88F1BB"/>
</linearGradient>
<linearGradient id="paint16_linear_218_3104" x1="192.035" y1="-344.965" x2="989.624" y2="-582.93" gradientUnits="userSpaceOnUse">
<stop stop-color="#69C9FF"/>
<stop offset="1" stop-color="#88F1BB"/>
</linearGradient>
<linearGradient id="paint17_linear_218_3104" x1="84.9658" y1="-452.035" x2="1020.52" y2="-731.163" gradientUnits="userSpaceOnUse">
<stop stop-color="#69C9FF"/>
<stop offset="1" stop-color="#88F1BB"/>
</linearGradient>
<linearGradient id="paint18_linear_218_3104" x1="35" y1="-502" x2="1034.94" y2="-800.338" gradientUnits="userSpaceOnUse">
<stop stop-color="#69C9FF"/>
<stop offset="1" stop-color="#88F1BB"/>
</linearGradient>
<linearGradient id="paint19_linear_218_3104" x1="488" y1="-49" x2="904.213" y2="-173.179" gradientUnits="userSpaceOnUse">
<stop stop-color="#69C9FF"/>
<stop offset="1" stop-color="#88F1BB"/>
</linearGradient>
<linearGradient id="paint20_linear_218_3104" x1="432" y1="-105" x2="920.374" y2="-250.709" gradientUnits="userSpaceOnUse">
<stop stop-color="#69C9FF"/>
<stop offset="1" stop-color="#88F1BB"/>
</linearGradient>
<linearGradient id="paint21_linear_218_3104" x1="378" y1="-159" x2="935.958" y2="-325.469" gradientUnits="userSpaceOnUse">
<stop stop-color="#69C9FF"/>
<stop offset="1" stop-color="#88F1BB"/>
</linearGradient>
<linearGradient id="paint22_linear_218_3104" x1="328" y1="-209" x2="950.387" y2="-394.693" gradientUnits="userSpaceOnUse">
<stop stop-color="#69C9FF"/>
<stop offset="1" stop-color="#88F1BB"/>
</linearGradient>
<linearGradient id="paint23_linear_218_3104" x1="279" y1="-258" x2="964.528" y2="-462.531" gradientUnits="userSpaceOnUse">
<stop stop-color="#69C9FF"/>
<stop offset="1" stop-color="#88F1BB"/>
</linearGradient>
<linearGradient id="paint24_linear_218_3104" x1="234" y1="-303" x2="977.514" y2="-524.832" gradientUnits="userSpaceOnUse">
<stop stop-color="#69C9FF"/>
<stop offset="1" stop-color="#88F1BB"/>
</linearGradient>
<linearGradient id="paint25_linear_218_3104" x1="658" y1="121" x2="855.154" y2="62.1783" gradientUnits="userSpaceOnUse">
<stop stop-color="#69C9FF"/>
<stop offset="1" stop-color="#88F1BB"/>
</linearGradient>
<clipPath id="clip0_218_3104">
<rect width="1623" height="549" fill="white"/>
</clipPath>
</defs>
</svg>
