<svg width="20" height="20" viewBox="0 0 20 20" fill="none" xmlns="http://www.w3.org/2000/svg">
<path d="M18.498 13.5H1.5V18.5H18.498V13.5ZM19.9445 12.4719L19.9661 12.5336L19.9892 12.6345L19.9981 12.7331V19.25C19.9981 19.6297 19.7159 19.9435 19.3499 19.9932L19.2481 20H0.75C0.3703 20 0.05651 19.7178 0.00685 19.3518L0 19.25V12.7506L0.00184011 12.6977L0.0127101 12.6122C0.0228501 12.5584 0.0384099 12.5072 0.0589399 12.4587L2.81824 6.44004C2.92517 6.20681 3.14245 6.04683 3.39153 6.01048L3.5 6.00261L6.03982 6.00184L5.25089 7.37207L5.18282 7.50184L3.981 7.50201L1.918 11.9998H18.07L16.0428 7.65384L16.9052 6.15654C16.9718 6.2074 17.0301 6.26958 17.0771 6.34111L17.1297 6.43554L19.9445 12.4719ZM11.3652 0.0556628L11.4566 0.100633L16.6447 3.10376C16.9729 3.29372 17.1033 3.69522 16.9636 4.03729L16.9187 4.12891L14.112 9.00101L15.25 9.00161C15.6642 9.00161 16 9.33741 16 9.75161C16 10.1313 15.7178 10.4451 15.3518 10.4948L15.25 10.5016L13.248 10.501L13.2471 10.504H9.1691L9.166 10.501L4.75 10.5016C4.33579 10.5016 4 10.1658 4 9.75161C4 9.37191 4.28215 9.05811 4.64823 9.00851L4.75 9.00161L6.573 9.00101L6.39145 8.89631C6.06327 8.70631 5.93285 8.30481 6.0726 7.96273L6.11747 7.87111L10.4341 0.375373C10.6235 0.0463428 11.024 -0.0844172 11.3652 0.0556628ZM11.3559 1.7753L7.78781 7.9712L9.566 9.00101H12.383L15.248 4.02819L11.3559 1.7753Z" fill="white"/>
</svg>
