<svg width="19" height="34" viewBox="0 0 19 34" fill="none" xmlns="http://www.w3.org/2000/svg">
<path d="M9.39431 32.2656C9.41183 31.8031 9.61844 31.3688 9.96447 31.0676L9.96448 31.0666C12.4036 28.5912 14.1574 25.5068 15.0503 22.1239C15.9431 18.7406 15.9431 15.1785 15.0503 11.7952C14.1574 8.4122 12.4036 5.32774 9.96448 2.85239C9.60421 2.42435 9.4812 1.84017 9.63852 1.30014C9.79541 0.760153 10.2112 0.3377 10.7427 0.178212C11.2745 0.0183542 11.8494 0.142977 12.2703 0.509427C15.1123 3.39724 17.156 6.99424 18.1963 10.9388C19.2366 14.8835 19.2366 19.0368 18.1963 22.9813C17.156 26.9262 15.1123 30.5232 12.2703 33.4106C11.9739 33.7622 11.5465 33.9722 11.0913 33.9903C10.6361 34.0081 10.1941 33.832 9.87176 33.5048C9.54982 33.1773 9.37643 32.7281 9.39431 32.2656Z" fill="#7395B3"/>
<path d="M5.33682 7.55598C7.78935 10.0511 9.16582 13.4344 9.16326 16.9609V16.9615C9.16588 20.4881 7.78935 23.8714 5.33682 26.3664C4.97618 26.7941 4.85353 27.3783 5.01049 27.9183C5.16776 28.4583 5.58349 28.8807 6.115 29.0406C6.64651 29.2005 7.2214 29.0755 7.64263 28.7094C10.708 25.5927 12.4301 21.3675 12.4301 16.9612C12.4301 12.5549 10.7081 8.32929 7.64263 5.21302C7.34625 4.8614 6.91882 4.65148 6.46364 4.63367C6.00808 4.61587 5.56641 4.79168 5.2441 5.11918C4.92179 5.44632 4.74877 5.89549 4.7663 6.358C4.78382 6.82086 4.99078 7.25481 5.33682 7.55598Z" fill="#7395B3"/>
<path d="M1.86181 9.43241C1.42962 9.43241 1.01532 9.60599 0.708714 9.91569C0.404291 10.2269 0.233494 10.6482 0.233494 11.087C0.233494 11.5262 0.40432 11.9471 0.708742 12.2587C1.937 13.5052 2.62724 15.1969 2.62724 16.9609C2.62724 18.7249 1.93707 20.4165 0.708742 21.6631C0.348469 22.0912 0.225513 22.6754 0.38278 23.2154C0.540047 23.7554 0.955828 24.1778 1.48729 24.3377C2.0188 24.4972 2.59368 24.3726 3.01454 24.0061C4.85203 22.1368 5.88393 19.6028 5.88393 16.9609C5.88393 14.319 4.85203 11.7851 3.01454 9.91569C2.70829 9.60599 2.29363 9.43241 1.86181 9.43241Z" fill="#7395B3"/>
</svg>
