<svg width="147" height="59" viewBox="0 0 147 59" fill="none" xmlns="http://www.w3.org/2000/svg">
<ellipse cx="29.1838" cy="29.5" rx="29.1838" ry="29.5" fill="#69C9FF"/>
<path d="M29.1831 53.5919C24.9029 35.3019 11.1864 29.91 4.86328 29.5003H29.1831V53.5919Z" fill="white"/>
<path d="M29.184 5.40851C33.4643 23.6985 47.1807 29.0905 53.5039 29.5002H29.184V5.40851Z" fill="white"/>
<path d="M80.5498 34.7354V21.4877H82.3262V37.5124H80.4345L70.9531 24.333V37.5124H69.1768V21.4877H71.0684L80.5498 34.7354Z" fill="#224059"/>
<path d="M90.0548 25.6987C91.4697 25.6987 92.5847 26.0629 93.3998 26.7913C94.2149 27.5045 94.6225 28.4605 94.6225 29.6594V37.5124H92.9154V35.3272C92.5617 36.1011 92.0388 36.7157 91.3467 37.1709C90.6546 37.611 89.8856 37.831 89.0398 37.831C87.7633 37.831 86.7944 37.5199 86.1331 36.8978C85.4871 36.2604 85.1641 35.4865 85.1641 34.576C85.1641 32.6185 86.556 31.4272 89.3397 31.0023L91.7389 30.6609C92.2156 30.6002 92.5309 30.494 92.6847 30.3422C92.8385 30.1753 92.9154 29.9325 92.9154 29.6138C92.9154 28.9006 92.6539 28.3164 92.131 27.8611C91.6235 27.4059 90.9084 27.1783 89.9856 27.1783C89.109 27.1783 88.4169 27.3907 87.9094 27.8156C87.4172 28.2253 87.1327 28.7944 87.0558 29.5228H85.3256C85.4333 28.2936 85.9177 27.3528 86.779 26.7002C87.6556 26.0326 88.7476 25.6987 90.0548 25.6987ZM89.3166 36.397C90.3932 36.397 91.2621 36.0025 91.9234 35.2134C92.5847 34.4243 92.9154 33.4 92.9154 32.1404V31.5714C92.6539 31.7231 92.2541 31.8294 91.7158 31.8901L89.7549 32.186C87.8479 32.4895 86.8943 33.2482 86.8943 34.4622C86.8943 35.054 87.1096 35.5244 87.5403 35.8735C87.9863 36.2225 88.5784 36.397 89.3166 36.397Z" fill="#224059"/>
<path d="M101.437 37.6717C99.4376 37.6717 98.4379 36.7157 98.4379 34.8036V27.5197H96.477V26.0629H98.4379V23.1721H100.145V26.0629H102.729V27.5197H100.145V34.7126C100.145 35.2437 100.276 35.6231 100.537 35.8507C100.814 36.0632 101.237 36.1694 101.806 36.1694C102.098 36.1694 102.406 36.1466 102.729 36.1011V37.5351C102.206 37.6262 101.775 37.6717 101.437 37.6717Z" fill="#224059"/>
<path d="M106.063 24.1509C105.709 24.1509 105.401 24.0295 105.14 23.7867C104.894 23.5439 104.771 23.248 104.771 22.8989C104.771 22.5499 104.894 22.254 105.14 22.0112C105.401 21.7684 105.709 21.647 106.063 21.647C106.401 21.647 106.693 21.776 106.939 22.034C107.186 22.2768 107.309 22.5651 107.309 22.8989C107.309 23.248 107.186 23.5439 106.939 23.7867C106.693 24.0295 106.401 24.1509 106.063 24.1509ZM106.893 37.5124H105.163V26.0629H106.893V37.5124Z" fill="#224059"/>
<path d="M119.069 36.1921C118.038 37.3151 116.692 37.8766 115.031 37.8766C113.37 37.8766 112.017 37.3151 110.971 36.1921C109.925 35.0692 109.403 33.6048 109.403 31.799C109.403 29.9932 109.925 28.5288 110.971 27.4059C112.017 26.2678 113.378 25.6987 115.055 25.6987C116.7 25.6987 118.038 26.2678 119.069 27.4059C120.099 28.5288 120.614 29.9932 120.614 31.799C120.614 33.6048 120.099 35.0692 119.069 36.1921ZM115.031 36.3742C116.216 36.3742 117.146 35.9721 117.823 35.1678C118.515 34.3484 118.861 33.2255 118.861 31.799C118.861 30.3574 118.515 29.2269 117.823 28.4074C117.146 27.588 116.216 27.1783 115.031 27.1783C113.832 27.1783 112.886 27.588 112.194 28.4074C111.517 29.2269 111.179 30.3574 111.179 31.799C111.179 33.2255 111.517 34.3484 112.194 35.1678C112.886 35.9721 113.832 36.3742 115.031 36.3742Z" fill="#224059"/>
<path d="M128.473 25.6987C129.781 25.6987 130.803 26.1084 131.542 26.9279C132.28 27.7473 132.649 28.8703 132.649 30.2967V37.5124H130.919V30.5698C130.919 28.3088 129.973 27.1783 128.081 27.1783C127.051 27.1783 126.213 27.5576 125.567 28.3164C124.936 29.0751 124.621 30.0842 124.621 31.3438V37.5124H122.914V26.0629H124.621V27.679C125.498 26.3588 126.782 25.6987 128.473 25.6987Z" fill="#224059"/>
<path d="M144.14 28.9082C146.047 29.6821 147 31.0251 147 32.9371C147 34.318 146.477 35.4865 145.432 36.4425C144.386 37.3986 142.956 37.8766 141.141 37.8766C139.372 37.8766 137.965 37.3758 136.919 36.3742C135.889 35.3727 135.373 34.1359 135.373 32.664H137.081C137.127 33.7262 137.504 34.5988 138.211 35.2817C138.918 35.9645 139.887 36.306 141.118 36.306C142.348 36.306 143.34 35.9949 144.094 35.3727C144.863 34.7505 145.247 33.9311 145.247 32.9144C145.247 31.8976 144.87 31.1237 144.117 30.5926C143.363 30.0615 142.333 29.7959 141.025 29.7959H139.872V28.2709H140.956C142.094 28.2709 142.971 28.0129 143.586 27.4969C144.217 26.981 144.532 26.3133 144.532 25.4938C144.532 24.6289 144.217 23.946 143.586 23.4452C142.971 22.9445 142.133 22.6941 141.072 22.6941C139.949 22.6941 139.08 22.9824 138.465 23.559C137.85 24.1205 137.519 24.902 137.473 25.9036H135.72C135.796 24.4468 136.304 23.2859 137.242 22.4209C138.18 21.556 139.472 21.1235 141.118 21.1235C142.748 21.1235 144.009 21.5408 144.901 22.3754C145.808 23.1948 146.262 24.2192 146.262 25.4483C146.262 26.9962 145.555 28.1495 144.14 28.9082Z" fill="#224059"/>
</svg>
