<svg width="1112" height="776" viewBox="0 0 1112 776" fill="none" xmlns="http://www.w3.org/2000/svg">
<rect width="1112" height="776" rx="20" fill="#69C9FF"/>
<path d="M0 388H1112V756C1112 767.046 1103.05 776 1092 776H20C8.95427 776 0 767.046 0 756V388Z" fill="#88F1BB"/>
<path d="M207.936 355.715C180.843 241.186 94.0234 207.423 54 204.858H207.936V355.715Z" fill="white"/>
<path d="M207.936 355.715C180.843 241.186 94.0234 207.423 54 204.858H207.936V355.715Z" fill="white"/>
<path d="M207.939 54C235.032 168.528 321.852 202.292 361.875 204.857H207.939V54Z" fill="white"/>
<path d="M207.939 54C235.032 168.528 321.852 202.292 361.875 204.857H207.939V54Z" fill="white"/>
</svg>
